<?xml version="1.0" encoding="utf-8"?>
<!DOCTYPE svg PUBLIC "-//W3C//DTD SVG 1.1//EN" "http://www.w3.org/Graphics/SVG/1.1/DTD/svg11.dtd" [
<!ENTITY ns_extend "http://ns.adobe.com/Extensibility/1.0/">
<!ENTITY ns_ai "http://ns.adobe.com/AdobeIllustrator/10.0/">
<!ENTITY ns_graphs "http://ns.adobe.com/Graphs/1.0/">
<!ENTITY ns_vars "http://ns.adobe.com/Variables/1.0/">
<!ENTITY ns_imrep "http://ns.adobe.com/ImageReplacement/1.0/">
<!ENTITY ns_sfw "http://ns.adobe.com/SaveForWeb/1.0/">
<!ENTITY ns_custom "http://ns.adobe.com/GenericCustomNamespace/1.0/">
<!ENTITY ns_adobe_xpath "http://ns.adobe.com/XPath/1.0/">
]>
<svg version="1.1" xmlns:x="&ns_extend;" xmlns:i="&ns_ai;" xmlns:graph="&ns_graphs;"
	   xmlns="http://www.w3.org/2000/svg" xmlns:xlink="http://www.w3.org/1999/xlink" x="0px" y="0px" width="600.388px"
	   height="501.439px" viewBox="0 0 600.388 501.439" enable-background="new 0 0 600.388 501.439" xml:space="preserve">
  <g fill="#4E9CD5">
	  <path d="M213.351,445.325c-0.472,0.755-0.97,1.324-1.488,1.7c-0.52,0.381-1.188,0.568-2.006,0.568
					   c-0.727,0-1.504-0.228-2.339-0.686c-0.835-0.455-1.78-0.966-2.833-1.534c-1.056-0.565-2.26-1.079-3.615-1.534
					   c-1.354-0.456-2.897-0.686-4.629-0.686c-2.992,0-5.219,0.638-6.684,1.913c-1.464,1.274-2.197,2.999-2.197,5.172
					   c0,1.384,0.441,2.535,1.323,3.449c0.882,0.913,2.04,1.698,3.472,2.36c1.433,0.662,3.069,1.268,4.913,1.819
					   c1.842,0.551,3.722,1.164,5.643,1.841c1.922,0.676,3.804,1.474,5.646,2.386c1.842,0.914,3.479,2.078,4.911,3.495
					   c1.434,1.417,2.59,3.143,3.472,5.173c0.881,2.03,1.323,4.479,1.323,7.344c0,3.183-0.552,6.158-1.654,8.928
					   c-1.102,2.77-2.701,5.187-4.794,7.25c-2.095,2.064-4.676,3.685-7.745,4.864c-3.071,1.181-6.558,1.771-10.463,1.771
					   c-2.142,0-4.322-0.222-6.542-0.659c-2.219-0.441-4.368-1.066-6.447-1.869s-4.031-1.755-5.857-2.859
					   c-1.826-1.098-3.418-2.329-4.77-3.68l4.722-7.464c0.347-0.566,0.834-1.023,1.464-1.372c0.63-0.345,1.307-0.517,2.032-0.517
					   c0.945,0,1.898,0.298,2.858,0.897c0.959,0.599,2.046,1.26,3.258,1.983c1.213,0.723,2.605,1.385,4.179,1.984
					   c1.575,0.599,3.433,0.896,5.576,0.896c2.896,0,5.147-0.638,6.752-1.914c1.607-1.273,2.409-3.296,2.409-6.068
					   c0-1.606-0.44-2.911-1.321-3.919c-0.883-1.01-2.038-1.844-3.472-2.504c-1.432-0.663-3.062-1.243-4.888-1.747
					   c-1.827-0.505-3.7-1.064-5.622-1.677c-1.922-0.615-3.794-1.371-5.619-2.27c-1.827-0.896-3.458-2.077-4.891-3.54
					   c-1.433-1.466-2.588-3.289-3.471-5.481c-0.881-2.186-1.323-4.889-1.323-8.1c0-2.58,0.519-5.1,1.559-7.558
					   c1.041-2.456,2.567-4.645,4.582-6.564c2.015-1.921,4.488-3.456,7.416-4.608c2.93-1.147,6.283-1.72,10.062-1.72
					   c2.109,0,4.165,0.162,6.163,0.494c2,0.33,3.898,0.819,5.691,1.464c1.795,0.646,3.472,1.416,5.032,2.315
					   c1.558,0.896,2.952,1.913,4.18,3.048L213.351,445.325z"/>
	  <path d="M277.219,430.278v13.104h-20.047v58.144h-16.529v-58.144h-20.05v-13.104H277.219z"/>
	  <path d="M343.385,501.51h-12.811c-1.434,0-2.616-0.338-3.545-1.003c-0.93-0.669-1.572-1.524-1.933-2.567
					   l-4.204-12.416h-27.083l-4.204,12.416c-0.328,0.912-0.965,1.733-1.906,2.47c-0.948,0.734-2.104,1.101-3.472,1.101h-12.909
					   l27.576-71.231h16.914L343.385,501.51z M297.623,474.277h19.457l-6.551-19.506c-0.424-1.238-0.919-2.696-1.489-4.376
					   c-0.574-1.679-1.133-3.495-1.689-5.451c-0.521,1.987-1.059,3.829-1.613,5.522c-0.553,1.695-1.076,3.162-1.564,4.401
					   L297.623,474.277z"/>
	  <path d="M413.515,465.874c0,5.155-0.89,9.906-2.664,14.261c-1.777,4.353-4.28,8.117-7.513,11.297
					   c-3.227,3.181-7.112,5.659-11.665,7.438c-4.55,1.774-9.596,2.665-15.137,2.665h-27.689v-71.268h27.689
					   c5.541,0,10.587,0.895,15.137,2.688c4.553,1.794,8.438,4.274,11.665,7.435c3.232,3.164,5.735,6.924,7.513,11.276
					   C412.625,456.021,413.515,460.755,413.515,465.874z M396.591,465.874c0-3.521-0.461-6.699-1.369-9.537
					   c-0.915-2.837-2.227-5.24-3.939-7.215c-1.715-1.974-3.809-3.488-6.286-4.549c-2.478-1.058-5.299-1.589-8.46-1.589h-11.055
					   v45.831h11.055c3.161,0,5.982-0.53,8.46-1.591c2.478-1.056,4.571-2.573,6.286-4.547c1.713-1.973,3.024-4.378,3.939-7.215
					   C396.13,472.625,396.591,469.43,396.591,465.874z"/>
	  <path d="M438.415,501.517h-16.627v-71.24h16.627V501.517z"/>
	  <path d="M480.187,487.769c2.213,0,4.2-0.361,5.945-1.088c1.75-0.726,3.223-1.763,4.432-3.116
					   c1.208-1.353,2.129-3.006,2.766-4.951c0.634-1.949,0.954-4.165,0.954-6.642v-41.693h16.546v41.693
					   c0,4.314-0.712,8.276-2.129,11.882c-1.424,3.606-3.453,6.714-6.095,9.322c-2.644,2.609-5.856,4.64-9.646,6.09
					   c-3.786,1.449-8.043,2.174-12.773,2.174c-4.768,0-9.043-0.725-12.826-2.174c-3.787-1.45-7.001-3.48-9.643-6.09
					   c-2.646-2.608-4.669-5.716-6.07-9.322c-1.406-3.605-2.108-7.567-2.108-11.882v-41.693h16.546v41.645
					   c0,2.48,0.32,4.693,0.958,6.642c0.633,1.948,1.559,3.608,2.767,4.975c1.207,1.371,2.678,2.416,4.427,3.142
					   C475.982,487.407,477.968,487.769,480.187,487.769z"/>
	  <path d="M558.626,472.746c0.6,1.339,1.179,2.71,1.735,4.112c0.552-1.436,1.14-2.829,1.755-4.186
					   c0.622-1.354,1.257-2.665,1.909-3.938l18.279-36.01c0.325-0.619,0.658-1.099,1-1.442c0.345-0.341,0.728-0.592,1.15-0.757
					   c0.425-0.163,0.906-0.247,1.441-0.247c0.538,0,1.162,0,1.884,0h12.607v71.161h-14.563v-40.956c0-1.985,0.096-4.138,0.292-6.45
					   l-18.864,36.605c-0.586,1.139-1.377,2.004-2.371,2.591c-0.996,0.584-2.127,0.88-3.397,0.88h-2.25
					   c-1.271,0-2.399-0.296-3.396-0.88c-0.992-0.587-1.782-1.452-2.369-2.591l-18.963-36.654c0.132,1.141,0.229,2.271,0.292,3.398
					   c0.066,1.123,0.099,2.156,0.099,3.101v40.956h-14.565v-71.161h12.613c0.715,0,1.34,0,1.878,0c0.539,0,1.021,0.084,1.443,0.247
					   c0.424,0.165,0.809,0.416,1.147,0.757c0.343,0.344,0.675,0.823,1.004,1.442l18.33,36.157
					   C557.393,470.121,558.021,471.41,558.626,472.746z"/>
	  <path d="M294.67,30.01l3.451-28.725c-89.014,2.272-163.263,64.47-184.635,148.101l28.444,3.36
						 C161.088,84.43,221.732,33.689,294.67,30.01z"/>
	  <path d="M136.163,212.756l-28.591-3.379c4.484,86.452,64.001,158.18,143.874,180.193l3.452-28.746
						 C190.102,341.194,141.824,283.074,136.163,212.756z"/>
	  <path d="M470.565,191.59L499,194.952c-1.691-87.415-59.617-160.915-138.781-185.201l-3.47,28.875
						 C420.835,60.44,467.563,120.302,470.565,191.59z"/>
	  <path d="M317.222,367.367l-3.469,28.887c84.295-4.533,154.436-62.845,177.352-141.551l-28.605-3.369
						 C442.019,314.725,385.418,361.655,317.222,367.367z"/>

	  <path d="M304.052,141.408c-31.944,0-57.842,26.131-57.842,58.371c0,32.229,25.898,58.354,57.842,58.354
						 c31.941,0,57.838-26.125,57.838-58.354C361.89,167.54,335.993,141.408,304.052,141.408z M304.052,240.495
						 c-22.281,0-40.35-18.235-40.35-40.716c0-22.486,18.068-40.713,40.35-40.713c22.277,0,40.338,18.227,40.338,40.713
						 C344.39,222.26,326.329,240.495,304.052,240.495z"/>
	  <path d="M304.052,163.584c-19.811,0-35.869,16.206-35.869,36.195c0,19.982,16.058,36.203,35.869,36.203
						 c19.801,0,35.861-16.221,35.861-36.203C339.913,179.79,323.853,163.584,304.052,163.584z M304.052,216.074
						 c-8.924,0-16.158-7.298-16.158-16.295c0-9.01,7.234-16.305,16.158-16.305c8.92,0,16.15,7.294,16.15,16.305
						 C320.202,208.776,312.972,216.074,304.052,216.074z"/>
  </g>
  <g fill="#97D0F2">
    <path d="M56.866,430.389v13.07H36.87v57.993H20.384v-57.993H0.388v-13.07H56.866z"/>
	  <path d="M109.703,430.389v12.687H80.521v18.006h24.302v12.737H80.521v27.67H63.93v-71.1H109.703z"/>
	  <path d="M141.096,430.276c3.479,0,6.612,0.507,9.397,1.522c2.788,1.015,5.163,2.423,7.13,4.228
					   c1.965,1.805,3.47,3.954,4.517,6.45c1.045,2.496,1.57,5.245,1.57,8.24c0,2.575-0.362,4.96-1.086,7.151
					   c-0.726,2.189-1.715,4.275-2.972,6.255c-1.256,1.984-2.715,3.9-4.373,5.75c-1.659,1.854-3.423,3.729-5.29,5.632l-13.772,14.106
					   c1.772-0.515,3.519-0.922,5.243-1.231c1.723-0.305,3.343-0.457,4.856-0.457h13.144c1.609,0,2.883,0.441,3.816,1.326
					   c0.935,0.886,1.402,2.057,1.402,3.505v8.698h-49.479v-4.833c0-0.935,0.193-1.933,0.579-2.995c0.387-1.064,1.063-2.031,2.029-2.9
					   l20.293-20.438c1.74-1.74,3.254-3.398,4.542-4.978c1.288-1.577,2.352-3.132,3.19-4.661c0.837-1.53,1.466-3.061,1.884-4.591
					   c0.419-1.531,0.628-3.15,0.628-4.857c0-2.802-0.669-4.952-2.004-6.45c-1.339-1.497-3.375-2.247-6.114-2.247
					   c-1.128,0-2.159,0.164-3.092,0.483c-0.934,0.324-1.772,0.757-2.512,1.306c-0.742,0.547-1.378,1.193-1.909,1.932
					   c-0.532,0.741-0.958,1.547-1.281,2.417c-0.515,1.448-1.167,2.497-1.958,3.141c-0.789,0.645-1.858,0.966-3.212,0.966
					   c-0.323,0-0.669-0.016-1.039-0.048c-0.373-0.031-0.75-0.082-1.136-0.145l-7.925-1.402c0.515-3.511,1.505-6.57,2.972-9.182
					   c1.465-2.607,3.284-4.781,5.459-6.521c2.173-1.739,4.663-3.037,7.466-3.892C134.864,430.703,137.874,430.276,141.096,430.276z"
				  />
	  <path d="M428.311,186.595l32.856,3.884c-3.394-65.97-46.444-121.346-105.574-142.296l-4.032,33.549
						 C393.422,99.361,423.789,139.168,428.311,186.595z"/>
	  <path d="M453.05,250.219l-33.236-3.935c-16.306,40.824-53.021,71.143-97.408,78.009l-4.033,33.535
						 C381.273,351.771,433.429,308.57,453.05,250.219z"/>
	  <path d="M178.817,217.794l-33.182-3.918c6,64.988,50.573,118.666,110.404,137.493l3.993-33.251
						 C217.481,302.442,185.695,264.243,178.817,217.794z"/>
	  <path d="M151.304,153.856l32.871,3.882c15.523-45.717,56.193-79.655,105.358-85.006l3.992-33.228
						 C225.889,43.605,169.703,90.579,151.304,153.856z"/>
  </g>
  <g fill="#CDE7F8">
	  <path d="M194.869,159.003l32.589,3.854c10.795-23.048,31.62-40.381,56.801-46.25l3.977-33.079
						 C245.036,89.164,209.365,118.943,194.869,159.003z"/>
	  <path d="M261.333,307.3l3.98-33.088c-20.268-10.392-35.783-28.845-42.376-51.2l-33.298-3.936
						 C196.659,259.512,224.352,292.769,261.333,307.3z"/>
	  <path d="M409.003,245.011l-33.314-3.938c-10.467,18.283-27.532,32.248-47.91,38.553l-4.062,33.737
						 C362.134,306.376,393.93,280.184,409.003,245.011z"/>
	  <path d="M350.25,92.675l-4.06,33.749c19.64,11.911,34.043,31.713,38.889,55.061l32.579,3.855
						 C412.894,143.895,386.548,109.092,350.25,92.675z"/>
  </g>
</svg>
