<svg xmlns="http://www.w3.org/2000/svg" width="350" height="350" viewBox="0 0 350 350"><path fill="#888" d="M69.916 152.247c-34.125 12.363-53.066 45.31-53.066 84.02 0 46.732 27.4 88.923 76.21 88.923l.003-243.713c.02-20 14.204-30.616 31.604-30.616v82.45c0 11.87 11.374 27.5 23.75 27.5h53.167c12.375 0 23.75-15.63 23.75-27.5V50.86c17.396 0 31.584 10.617 31.604 30.617l.002 243.713c49.062 0 76.21-42.188 76.21-88.923 0-38.71-18.94-71.658-53.066-84.02h.002V80.95c0-7.688-1-21.14-10.25-32.6-10.62-13.154-28.66-22.92-52.41-23.533-6.975-.18-16.262 3.532-16.262 10.36 0 28.548-.017 60.118-.017 89.55 0 12.666-8.23 13.94-14.23 13.94h-23.83c-6 0-14.23-1.274-14.23-13.94 0-29.433-.017-61.002-.017-89.55 0-6.828-9.286-10.54-16.26-10.36-23.752.614-41.793 10.38-52.412 23.534-9.25 11.46-10.25 24.91-10.25 32.6-.002 20.796-.002 48.768-.002 71.298z"/></svg>