<svg xmlns="http://www.w3.org/2000/svg" width="486.695" height="484.29" viewBox="0 0 486.695 484.29"><path fill="#CDE7F8" d="M121 164v16.282s6-13.313 27.375-25.7c21.188-12.28 38.917-17.404 61.375-22.05 26.66-5.515 49-1.313 49-1.313v-16.29s-33.708-13.21-49-8.55-57.958 9.83-70.958 21S121 164 121 164z"/><path fill="#CDE7F8" d="M78.813 145.688L121 164s6-13.312 27.375-25.7c21.188-12.28 38.917-17.403 61.375-22.05 26.66-5.514 49-1.312 49-1.312l11.71-37.573s-48.334-13.552-69.084-8.052-65.5 20-83.25 31-39.313 45.375-39.313 45.375z"/><path fill="#97D0F1" d="M78.813 129.22v16.47s18.98-29.657 57.146-46.824 64-20.525 85.83-22.25c21.83-1.725 48.66.75 48.66.75v-16.47s-65-19.166-93.5-11.332-67.16 22-79.75 35c-12.59 13-18.4 44.656-18.4 44.656z"/><path fill="#97D0F1" d="M36.667 110.98l42.146 18.24s18.98-29.657 57.146-46.824 64-20.525 85.83-22.25 48.66.75 48.66.75l11.66-37s-77-17.583-102.5-9.083-78.41 23.02-95.2 33.387c-16.79 10.36-47.75 62.78-47.75 62.78z"/><path fill="#74BBE8" d="M36.667 103.397v7.583S60 72.272 105.157 51.897c31.733-14.32 63.718-26.125 105.8-29.417 46.453-3.633 71.168 1.417 71.168 1.417v-7.583s-65.5-13.25-104.5-4.25-66.16 17.385-88.5 32.75c-34.167 23.5-52.458 58.583-52.458 58.583z"/><path fill="#74BBE8" d="M18.125 100.063s9.208-24.72 46.25-50.22c34.16-23.515 71.003-35.772 105.75-43.03 61.833-12.917 118-3.5 118-3.5l-6 13s-24.715-5.05-71.167-1.417c-42.083 3.292-74.068 15.098-105.802 29.417C60 64.688 36.77 103.397 36.77 103.397l-18.645-3.334z"/><path fill="#4E9CD5" d="M18.125 100.063v61.688L121 180.29v-16.28l-42.187-18.32v-16.47l-42.146-18.24.104-7.583M288.13 3.313V65.23l-29.375 65.99v-16.282l11.71-37.572v-16.47l11.666-37v-7.583m199.67 167.75v61.75s4.91-10.375 4.91-33.5v-63.625l-4.9 35.375z"/><path fill="#CDE7F8" d="M301.083 122.563v16.5s19.76 3.28 39.947 17.344c20.188 14.063 28.206 24.81 34.656 39.406 8.563 19.375 2.25 31.313 2.25 31.313l27.926-27.563s-12.32-42.25-25.904-55.5-78.875-21.5-78.875-21.5z"/><path fill="#CDE7F8" d="M313.042 85.188l-11.96 37.375s19.76 3.28 39.948 17.344c20.188 14.063 28.206 24.81 34.656 39.406 8.563 19.375 2.25 31.313 2.25 31.313l41.813-2.604s40.87-48.708 4.87-90.958-111.58-31.876-111.58-31.876z"/><path fill="#97D0F1" d="M313.042 68.355v16.833s44.5 11.458 72.75 36.375 31.91 40.807 34.785 53.807c2.875 13-.828 32.65-.828 32.65l27.12-27.738s-23.25-81.47-48.5-93.97-85.33-17.957-85.33-17.957z"/><path fill="#97D0F1" d="M325.03 31.188l-11.987 37.167s44.5 11.458 72.75 36.375 31.91 40.807 34.785 53.807-.828 32.65-.828 32.65l41.125-3s17.625-25 15.75-40.124-31.834-65.167-50-82.667S325.03 31.188 325.03 31.188z"/><path fill="#74BBE8" d="M325.03 23.25v7.94S381.5 44.25 417 74.75c17.473 15.012 39.043 36.375 46.293 67.625s-2.418 45.813-2.418 45.813l17.5-9.125s-4.5-77.25-46.75-111.797C384.62 28.833 325.03 23.25 325.03 23.25z"/><path fill="#74BBE8" d="M330.688 11.313s40.77 7.333 77.438 29.417c37.447 22.553 52.145 41.324 67.998 68.5 19.834 34 5.668 74.833 5.668 74.833l-20.918-3.813s9.668-14.563 2.418-45.813S434.472 81.825 417 66.813c-35.5-30.5-91.97-43.563-91.97-43.563l5.658-11.937z"/><path fill="#4E9CD5" d="M460.875 180.084v7.937l-41.125 3v16.84l-41.812 2.61v16.5l103.854 18.86V183.9"/><ellipse cx="243.292" cy="216.994" fill="#4E9CD5" rx="54.667" ry="35.403"/><ellipse cx="243.292" cy="215.993" fill="#74BBE8" rx="49.004" ry="31.737"/><ellipse cx="243.292" cy="214.992" fill="#97D0F1" rx="35.109" ry="22.737"/><ellipse cx="243.292" cy="212.993" fill="#CDE7F8" rx="11.431" ry="7.403"/><path fill="#CDE7F8" d="M67.125 173.072l41.75 17.742s-3.394 30.41 15.5 52.25C134 254.19 157.58 267.85 164.268 271.21c10.17 5.104 21.607 8.02 21.607 8.02l-12 15.834s-95.597-51.998-106.264-71.17-.48-50.822-.48-50.822z"/><path fill="#97D0F1" d="M67.125 156.563v16.508s-2.333 22.16 1.167 31.16-13.333-3.66-13.333-3.66l12.16-44z"/><path fill="#97D0F1" d="M25.6 138.3l41.525 18.264s-6.875 31.75 10.938 60.75c9.755 15.882 28.063 30.75 42.313 38s53.5 23.5 53.5 23.5l-12.25 16.875s-111.06-39.52-122.75-64.13C7.876 166.31 25.6 138.3 25.6 138.3z"/><path fill="#74BBE8" d="M25.958 130.897L13.625 153.75s5.875 12.064 5.938 5.814S26 138.446 26 138.446l-.042-7.55"/><path fill="#74BBE8" d="M5.125 126.563S0 150.063 0 162.313s9.125 84.25 40.875 102.75 115.25 35 115.25 35l5.5-12.25s-25.81-7.536-51.375-18.75c-24.283-10.65-57.625-38.25-69.875-58-28.67-46.223-14.417-80.167-14.417-80.167l-20.833-4.333z"/><path fill="#4E9CD5" d="M0 157.938v66s4 20.5 11.875 40.125c6.98 17.396 28.8 45.32 66.625 67.624 45.292 26.71 77.625 29.875 77.625 29.875v-61.5s-39.5-6.25-77.5-29.75c-10.163-6.284-46.632-31.542-66.5-69.75C2.375 181.812 0 157.94 0 157.94zM185.875 279.23v16.5l-29.75 65.832v-61.5l5.5-12.25v7.876l12.25-16.875v16.25"/><path fill="#CDE7F8" d="M259.626 286.994s43.498-2.18 79.498-24.014c23.666-14.352 26.5-25.417 26.5-25.417l27.64-1.983s-32.39 36.983-57.89 43.233-75.748 8.18-75.748 8.18z"/><path fill="#97D0F1" d="M209.75 295.063l6.125-8.625s53.417 5.125 94.75-7.625c41.334-12.75 59.666-22.75 73.834-34.916 14.16-12.167 23.5-26 23.5-26l36.85-2.57s-31.63 55.76-67.69 64.486c-116.75 28.25-167.38 15.25-167.38 15.25z"/><path fill="#74BBE8" d="M198.458 307.562l6.417-13.25s33.625 4.626 72.248 1.376c40.106-3.375 80.137-16.69 104.045-28.792 50.625-25.625 68.957-59.583 68.957-59.583l18.625 3.667s-50.625 96.832-90.625 109.207-179.667-12.625-179.667-12.625z"/><path fill="#4E9CD5" d="M198.458 307.562v62.334s61.667 8.334 115-3.334c53.332-11.666 85.01-25.635 109.48-44.125 44.603-33.707 45.812-49.457 45.812-49.457v-62s-9.613 24.534-46.27 49.98c-27.52 19.103-45.02 29.603-106.396 43.11-67.643 14.89-117.626 3.492-117.626 3.492z"/><path fill="#CDE7F8" d="M44.23 402.685c1.122 0 1.632.612 1.632 1.633v10.2c0 1.02-.51 1.632-1.632 1.632H32.397v66.508c0 1.122-.51 1.632-1.632 1.632H20.157c-1.02 0-1.632-.51-1.632-1.632V416.15H6.692c-1.02 0-1.632-.61-1.632-1.632v-10.2c0-1.02.612-1.633 1.632-1.633H44.23zm50.59 11.833c0 1.02-.61 1.632-1.63 1.632h-25.3v20.503h19.18c1.02 0 1.63.612 1.63 1.633v10.2c0 1.122-.61 1.632-1.63 1.632H67.89v32.54c0 1.02-.612 1.632-1.632 1.632H55.65c-1.12 0-1.63-.612-1.63-1.632v-78.34c0-1.02.51-1.633 1.63-1.633h37.54c1.02 0 1.63.612 1.63 1.633v10.2zm25.5 42.944c-1.02.612-1.428 1.326-1.428 2.448v8.874c0 1.326.714 2.04 2.04 2.04h11.017v-4.182c0-1.326.71-2.04 2.04-2.04h9.79c1.32 0 2.04.714 2.04 2.04v15.606c0 1.326-.72 2.04-2.04 2.04h-36.72c-1.33 0-2.04-.714-2.04-2.04v-30.092c0-1.938.71-2.754 2.65-3.773l24.27-13.057V420.23c0-2.65-1.53-4.08-4.08-4.08h-4.9c-2.76 0-4.08 1.43-4.08 4.08v7.957c0 1.02-.61 1.632-1.63 1.632h-10.61c-1.12 0-1.63-.62-1.63-1.64v-10.81c0-9.59 5.1-14.69 14.68-14.69h11.42c9.48 0 14.69 5.1 14.69 14.69v24.07c0 1.94-.82 2.75-2.76 3.77l-22.74 12.24z"/><path fill="#4E9CD5" d="M182.132 402.685c9.59 0 14.69 5.1 14.69 14.69v10.812c0 1.02-.51 1.632-1.633 1.632h-10.61c-1.02 0-1.63-.62-1.63-1.64v-7.96c0-2.65-1.33-4.08-4.09-4.08h-4.9c-2.55 0-4.08 1.43-4.08 4.08v14.08l24.27 7.95c1.73.71 2.65 1.83 2.65 3.77v23.57c0 9.58-5.1 14.68-14.69 14.68H170.7c-9.485 0-14.69-5.1-14.69-14.69v-10.71c0-1.126.614-1.636 1.634-1.636h10.61c1.12 0 1.63.51 1.63 1.632v7.85c0 2.754 1.53 4.08 4.08 4.08h4.895c2.65 0 4.08-1.326 4.08-4.08v-13.56l-24.18-7.955c-1.84-.61-2.76-1.83-2.76-3.77v-24.07c0-9.59 5.2-14.69 14.69-14.69h11.42zm59.978 0c1.122 0 1.632.612 1.632 1.633v10.2c0 1.02-.51 1.632-1.632 1.632h-11.833v66.508c0 1.122-.51 1.632-1.632 1.632h-10.61c-1.02 0-1.63-.51-1.63-1.632V416.15H204.57c-1.02 0-1.63-.61-1.63-1.632v-10.2c0-1.02.61-1.633 1.63-1.633h37.54zm38.964 81.605c-.918 0-1.428-.51-1.632-1.428l-2.856-14.894H258.43l-2.755 14.894c-.204.918-.714 1.428-1.632 1.428h-10.915c-1.122 0-1.632-.612-1.326-1.734l16.933-78.44c.204-1.022.815-1.43 1.733-1.43h14.18c.918 0 1.53.408 1.733 1.43l16.94 78.44c.21 1.122-.2 1.734-1.43 1.734h-10.81zm-13.567-63.753l-6.528 35.6h13.05l-6.53-35.6zm32.946-16.22c0-1.02.51-1.632 1.632-1.632h24.48c9.59 0 14.69 5.203 14.69 14.79V469.6c0 9.59-5.102 14.69-14.69 14.69h-24.48c-1.122 0-1.632-.51-1.632-1.632v-78.34zm23.256 66.508c2.65 0 4.08-1.326 4.08-4.08v-46.412c0-2.754-1.43-4.183-4.08-4.183h-9.39v54.675h9.38zm39.98-68.14c1.02 0 1.63.612 1.63 1.633v78.34c0 1.02-.61 1.632-1.63 1.632h-10.61c-1.13 0-1.64-.612-1.64-1.632v-78.34c0-1.02.51-1.633 1.63-1.633h10.61zm50.59 0c1.12 0 2.04.92 2.04 2.04V469.6c0 9.59-5.1 14.69-14.69 14.69h-11.42c-9.59 0-14.69-5.1-14.69-14.69v-64.873c0-1.122.92-2.04 2.04-2.04h9.79c1.12 0 2.04.918 2.04 2.04v62.02c0 2.753 1.43 4.08 4.08 4.08h5.3c2.65 0 4.08-1.327 4.08-4.08v-62.02c0-1.122.92-2.04 2.04-2.04h9.38zm66.3 0c1.32 0 2.04.715 2.04 2.04v77.524c0 1.32-.72 2.04-2.04 2.04h-9.48c-1.33 0-2.04-.72-2.04-2.04v-45.91h-.72l-10.1 46.1c-.31 1.22-1.03 1.83-2.25 1.83h-5c-1.23 0-1.94-.62-2.24-1.84l-10.1-46.11h-.72v45.9c0 1.32-.72 2.04-2.04 2.04h-9.39c-1.32 0-2.04-.72-2.04-2.04V404.7c0-1.33.72-2.04 2.04-2.04h13.47c1.223 0 1.94.61 2.242 1.834l11.325 50.8 11.32-50.8c.304-1.225 1.02-1.837 2.242-1.837h13.462z"/></svg>