<svg xmlns="http://www.w3.org/2000/svg" width="486.695" height="553.645" viewBox="0 0 486.695 553.645"><path fill="#CDE7F8" d="M121 164v16.282s6-13.313 27.375-25.7c21.188-12.28 38.917-17.404 61.375-22.05 26.66-5.515 49-1.313 49-1.313v-16.29s-33.708-13.21-49-8.55-57.958 9.83-70.958 21S121 164 121 164z"/><path fill="#CDE7F8" d="M78.813 145.688L121 164s6-13.312 27.375-25.7c21.188-12.28 38.917-17.403 61.375-22.05 26.66-5.514 49-1.312 49-1.312l11.71-37.573s-48.334-13.552-69.084-8.052-65.5 20-83.25 31-39.313 45.375-39.313 45.375z"/><path fill="#97D0F1" d="M78.813 129.22v16.47s18.98-29.657 57.146-46.824 64-20.525 85.83-22.25c21.83-1.725 48.66.75 48.66.75v-16.47s-65-19.166-93.5-11.332-67.16 22-79.75 35c-12.59 13-18.4 44.656-18.4 44.656z"/><path fill="#97D0F1" d="M36.667 110.98l42.146 18.24s18.98-29.657 57.146-46.824 64-20.525 85.83-22.25 48.66.75 48.66.75l11.66-37s-77-17.583-102.5-9.083-78.41 23.02-95.2 33.387c-16.79 10.36-47.75 62.78-47.75 62.78z"/><path fill="#74BBE8" d="M36.667 103.397v7.583S60 72.272 105.157 51.897c31.733-14.32 63.718-26.125 105.8-29.417 46.453-3.633 71.168 1.417 71.168 1.417v-7.583s-65.5-13.25-104.5-4.25-66.16 17.385-88.5 32.75c-34.167 23.5-52.458 58.583-52.458 58.583z"/><path fill="#74BBE8" d="M18.125 100.063s9.208-24.72 46.25-50.22c34.16-23.515 71.003-35.772 105.75-43.03 61.833-12.917 118-3.5 118-3.5l-6 13s-24.715-5.05-71.167-1.417c-42.083 3.292-74.068 15.098-105.802 29.417C60 64.688 36.77 103.397 36.77 103.397l-18.645-3.334z"/><path fill="#4E9CD5" d="M18.125 100.063v61.688L121 180.29v-16.28l-42.187-18.32v-16.47l-42.146-18.24.104-7.583M288.13 3.313V65.23l-29.375 65.99v-16.282l11.71-37.572v-16.47l11.666-37v-7.583m199.67 167.75v61.75s4.91-10.375 4.91-33.5v-63.625l-4.9 35.375z"/><path fill="#CDE7F8" d="M301.083 122.563v16.5s19.76 3.28 39.946 17.344c20.18 14.063 28.2 24.81 34.65 39.406 8.56 19.375 2.25 31.313 2.25 31.313l27.92-27.563s-12.32-42.25-25.91-55.5-78.88-21.5-78.88-21.5z"/><path fill="#CDE7F8" d="M313.042 85.188l-11.96 37.375s19.76 3.28 39.947 17.344c20.18 14.063 28.2 24.81 34.65 39.406 8.56 19.375 2.25 31.313 2.25 31.313l41.81-2.604s40.87-48.708 4.87-90.958-111.58-31.876-111.58-31.876z"/><path fill="#97D0F1" d="M313.042 68.355v16.833s44.5 11.458 72.75 36.375 31.91 40.807 34.785 53.807-.828 32.65-.828 32.65l27.12-27.738s-23.25-81.47-48.5-93.97-85.33-17.957-85.33-17.957z"/><path fill="#97D0F1" d="M325.03 31.188l-11.987 37.167s44.5 11.458 72.75 36.375 31.91 40.807 34.785 53.807-.828 32.65-.828 32.65l41.125-3s17.625-25 15.75-40.124-31.834-65.167-50-82.667S325.03 31.188 325.03 31.188z"/><path fill="#74BBE8" d="M325.03 23.25v7.94S381.5 44.25 417 74.75c17.473 15.012 39.043 36.375 46.293 67.625s-2.418 45.813-2.418 45.813l17.5-9.125s-4.5-77.25-46.75-111.797C384.62 28.833 325.03 23.25 325.03 23.25z"/><path fill="#74BBE8" d="M330.688 11.313s40.77 7.333 77.438 29.417c37.447 22.553 52.145 41.324 67.998 68.5 19.834 34 5.668 74.833 5.668 74.833l-20.918-3.813s9.668-14.563 2.418-45.813S434.472 81.825 417 66.813c-35.5-30.5-91.97-43.563-91.97-43.563l5.658-11.937z"/><path fill="#4E9CD5" d="M460.875 180.084v7.937l-41.125 3v16.84l-41.812 2.61v16.5l103.854 18.86V183.9"/><ellipse cx="243.292" cy="216.994" fill="#4E9CD5" rx="54.667" ry="35.403"/><ellipse cx="243.292" cy="215.993" fill="#74BBE8" rx="49.004" ry="31.737"/><ellipse cx="243.292" cy="214.992" fill="#97D0F1" rx="35.108" ry="22.737"/><ellipse cx="243.292" cy="212.993" fill="#CDE7F8" rx="11.431" ry="7.403"/><path fill="#CDE7F8" d="M67.125 173.072l41.75 17.742s-3.394 30.41 15.5 52.25C134 254.19 157.58 267.85 164.268 271.21c10.17 5.104 21.607 8.02 21.607 8.02l-12 15.835s-95.597-52-106.264-71.17-.48-50.823-.48-50.823z"/><path fill="#97D0F1" d="M67.125 156.563v16.508s-2.333 22.16 1.167 31.16-13.333-3.66-13.333-3.66l12.16-44z"/><path fill="#97D0F1" d="M25.6 138.3l41.525 18.264s-6.875 31.75 10.938 60.75c9.755 15.882 28.063 30.75 42.313 38s53.5 23.5 53.5 23.5l-12.25 16.875s-111.06-39.52-122.75-64.13C7.876 166.31 25.6 138.3 25.6 138.3z"/><path fill="#74BBE8" d="M25.958 130.897L13.625 153.75s5.875 12.064 5.938 5.814S26 138.446 26 138.446l-.042-7.55"/><path fill="#74BBE8" d="M5.125 126.563S0 150.063 0 162.313s9.125 84.25 40.875 102.75 115.25 35 115.25 35l5.5-12.25s-25.81-7.535-51.375-18.75c-24.283-10.65-57.625-38.25-69.875-58-28.67-46.223-14.417-80.167-14.417-80.167l-20.833-4.333z"/><path fill="#4E9CD5" d="M0 157.938v66s4 20.5 11.875 40.125c6.98 17.396 28.8 45.32 66.625 67.623 45.292 26.71 77.625 29.875 77.625 29.875v-61.49s-39.5-6.25-77.5-29.75c-10.163-6.28-46.632-31.54-66.5-69.75C2.375 181.82 0 157.94 0 157.94zM185.875 279.23v16.5l-29.75 65.833v-61.5l5.5-12.25v7.875l12.25-16.875v16.25"/><path fill="#CDE7F8" d="M259.626 286.995s43.498-2.183 79.498-24.015c23.666-14.353 26.5-25.417 26.5-25.417l27.64-1.983s-32.39 36.983-57.89 43.232c-25.5 6.25-75.748 8.183-75.748 8.183z"/><path fill="#97D0F1" d="M209.75 295.063l6.125-8.625s53.417 5.125 94.75-7.625c41.334-12.75 59.666-22.75 73.834-34.916 14.16-12.167 23.5-26 23.5-26l36.85-2.57s-31.63 55.76-67.69 64.485c-116.75 28.25-167.38 15.25-167.38 15.25z"/><path fill="#74BBE8" d="M198.458 307.563l6.417-13.25s33.625 4.625 72.248 1.375c40.105-3.375 80.137-16.688 104.045-28.792 50.625-25.625 68.957-59.583 68.957-59.583l18.625 3.667s-50.625 96.833-90.625 109.208-179.667-12.625-179.667-12.625z"/><path fill="#4E9CD5" d="M198.458 307.563v62.334s61.667 8.334 115-3.336c53.332-11.66 85.01-25.63 109.48-44.12 44.603-33.7 45.812-49.45 45.812-49.45v-62s-9.613 24.54-46.27 49.98c-27.52 19.11-45.02 29.61-106.396 43.11-67.643 14.89-117.626 3.5-117.626 3.5z"/><path fill="#CDE7F8" d="M44.23 402.684c1.122 0 1.632.613 1.632 1.636v10.198c0 1.02-.51 1.634-1.632 1.634H32.397v66.508c0 1.12-.51 1.63-1.632 1.63H20.157c-1.02 0-1.632-.51-1.632-1.63v-66.508H6.692c-1.02 0-1.632-.61-1.632-1.634V404.32c0-1.02.612-1.636 1.632-1.636H44.23zm50.59 11.834c0 1.02-.61 1.634-1.63 1.634h-25.3v20.502h19.18c1.02 0 1.63.61 1.63 1.633v10.2c0 1.122-.61 1.632-1.63 1.632H67.89v32.54c0 1.02-.612 1.63-1.632 1.63H55.65c-1.12 0-1.63-.61-1.63-1.63v-78.34c0-1.02.51-1.64 1.63-1.64h37.54c1.02 0 1.63.61 1.63 1.63v10.19zm25.5 42.942c-1.02.614-1.428 1.327-1.428 2.45v8.873c0 1.326.714 2.04 2.04 2.04h11.017v-4.184c0-1.33.71-2.04 2.04-2.04h9.79c1.32 0 2.04.71 2.04 2.04v15.6c0 1.32-.72 2.04-2.04 2.04h-36.72c-1.33 0-2.04-.72-2.04-2.04v-30.09c0-1.94.71-2.76 2.65-3.78l24.27-13.06v-15.09c0-2.65-1.53-4.08-4.08-4.08h-4.9c-2.76 0-4.08 1.43-4.08 4.08v7.95c0 1.02-.61 1.63-1.63 1.63h-10.61c-1.12 0-1.63-.61-1.63-1.633v-10.81c0-9.586 5.1-14.687 14.68-14.687h11.42c9.484 0 14.69 5.11 14.69 14.69v24.08c0 1.936-.82 2.75-2.758 3.77l-22.74 12.24z"/><path fill="#4E9CD5" d="M182.132 402.684c9.59 0 14.69 5.103 14.69 14.69v10.812c0 1.02-.51 1.634-1.633 1.634h-10.61c-1.02 0-1.63-.61-1.63-1.634v-7.954c0-2.652-1.33-4.08-4.09-4.08h-4.9c-2.55 0-4.08 1.428-4.08 4.08v14.075l24.27 7.955c1.73.715 2.65 1.836 2.65 3.775V469.6c0 9.59-5.1 14.688-14.69 14.688H170.7c-9.485 0-14.69-5.103-14.69-14.688v-10.71c0-1.122.614-1.632 1.634-1.632h10.61c1.12 0 1.63.51 1.63 1.63v7.856c0 2.754 1.53 4.08 4.08 4.08h4.895c2.65 0 4.08-1.326 4.08-4.08v-13.566l-24.18-7.957c-1.84-.61-2.76-1.83-2.76-3.77v-24.07c0-9.59 5.2-14.68 14.69-14.68h11.42zm59.978 0c1.122 0 1.632.613 1.632 1.636v10.198c0 1.02-.51 1.634-1.632 1.634h-11.833v66.508c0 1.12-.51 1.63-1.632 1.63h-10.61c-1.02 0-1.63-.51-1.63-1.63v-66.508H204.57c-1.02 0-1.63-.61-1.63-1.634V404.32c0-1.02.61-1.636 1.63-1.636h37.54zm38.964 81.606c-.918 0-1.428-.51-1.633-1.428l-2.85-14.896h-18.16l-2.75 14.896c-.2.918-.71 1.428-1.63 1.428h-10.92c-1.12 0-1.63-.61-1.32-1.734l16.94-78.438c.207-1.02.816-1.43 1.73-1.43h14.18c.92 0 1.53.407 1.736 1.43l16.94 78.438c.204 1.123-.202 1.734-1.43 1.734h-10.81zm-13.567-63.752l-6.528 35.6h13.05l-6.53-35.6zm32.946-16.218c0-1.022.51-1.637 1.632-1.637h24.48c9.59 0 14.69 5.203 14.69 14.79V469.6c0 9.59-5.103 14.69-14.69 14.69h-24.48c-1.122 0-1.632-.51-1.632-1.634V404.32zm23.256 66.505c2.65 0 4.08-1.326 4.08-4.08v-46.412c0-2.754-1.43-4.182-4.08-4.182h-9.39v54.68h9.38zm39.98-68.14c1.02 0 1.63.612 1.63 1.635v78.34c0 1.02-.61 1.63-1.63 1.63h-10.61c-1.13 0-1.64-.61-1.64-1.63v-78.34c0-1.02.51-1.636 1.63-1.636h10.61zm50.59 0c1.12 0 2.04.92 2.04 2.04V469.6c0 9.59-5.11 14.69-14.69 14.69h-11.42c-9.59 0-14.69-5.103-14.69-14.69v-64.875c0-1.12.92-2.04 2.04-2.04h9.79c1.12 0 2.04.92 2.04 2.04v62.02c0 2.755 1.43 4.08 4.08 4.08h5.3c2.65 0 4.08-1.325 4.08-4.08v-62.02c0-1.12.92-2.04 2.04-2.04h9.38zm66.3 0c1.32 0 2.04.717 2.04 2.04v77.523c0 1.326-.72 2.04-2.04 2.04h-9.48c-1.33 0-2.04-.714-2.04-2.04v-45.902h-.72l-10.1 46.107c-.31 1.223-1.03 1.836-2.25 1.836h-5c-1.228 0-1.94-.62-2.24-1.84l-10.1-46.11h-.72v45.9c0 1.32-.716 2.04-2.04 2.04h-9.386c-1.32 0-2.04-.72-2.04-2.04v-77.52c0-1.33.72-2.04 2.04-2.04h13.47c1.225 0 1.94.61 2.244 1.84l11.32 50.8 11.324-50.8c.302-1.23 1.02-1.84 2.24-1.84h13.47z"/><path fill="#CDE7F8" d="M322.8 553.145c-.677 0-1.052-.375-1.2-1.05l-2.4-9.45h-14.1l-2.325 9.45c-.15.675-.524 1.05-1.2 1.05h-7.35c-.824 0-1.2-.45-.975-1.275l12.45-50.173c.15-.75.6-1.05 1.274-1.05h10.424c.676 0 1.125.3 1.275 1.05l12.45 50.173c.224.825-.15 1.275-1.05 1.275H322.8zm-10.652-39.6l-4.725 20.4h9.45l-4.725-20.4zm35.25 29.7h14.85c.824 0 1.2.45 1.2 1.2v7.5c0 .824-.376 1.2-1.2 1.2h-23.85c-.75 0-1.2-.376-1.2-1.2v-50.1c0-.75.45-1.2 1.2-1.2h7.8c.825 0 1.2.45 1.2 1.2v41.4zm23.552-41.398c0-.75.448-1.2 1.198-1.2h18c7.05 0 10.8 3.75 10.8 10.8v14.7c0 6.974-3.75 10.724-10.8 10.8l-9.45.074v15c0 .75-.375 1.2-1.2 1.2l-7.35-.07c-.75 0-1.2-.45-1.2-1.2v-50.1zm17.247 25.424c2.025 0 3-1.12 3-3v-10.94c0-1.95-.975-3-3-3l-7.5.08v16.95l7.5-.07zm40.05-25.42c0-.75.45-1.2 1.2-1.2h7.725c.9 0 1.275.45 1.275 1.2v50.1c0 .75-.375 1.2-1.275 1.2h-7.725c-.75 0-1.2-.45-1.2-1.2V532h-9.6v19.95c0 .75-.45 1.2-1.2 1.2h-7.724c-.9 0-1.274-.45-1.274-1.2v-50.1c0-.75.37-1.2 1.27-1.2h7.72c.75 0 1.2.45 1.2 1.2v20.25h9.6v-20.25zm44.325 51.3c-.674 0-1.05-.37-1.2-1.05l-2.4-9.45h-14.1l-2.323 9.45c-.15.68-.53 1.05-1.2 1.05H444c-.826 0-1.2-.45-.977-1.27l12.45-50.17c.15-.75.6-1.05 1.274-1.05h10.426c.674 0 1.124.3 1.274 1.05l12.45 50.18c.225.83-.15 1.28-1.05 1.28h-7.275zm-10.648-39.6l-4.725 20.4h9.44l-4.73-20.4z"/></svg>