<svg xmlns="http://www.w3.org/2000/svg" width="2383.629" height="372.78" viewBox="0 0 2383.629 372.78"><path fill="#CDE7F8" d="M701.206 164v16.282s6-13.313 27.375-25.7c21.19-12.28 38.92-17.404 61.38-22.05 26.66-5.515 49-1.313 49-1.313v-16.29s-33.71-13.21-49-8.55-57.96 9.834-70.96 21S701.21 164 701.21 164z"/><path fill="#CDE7F8" d="M659.02 145.688L701.206 164s6-13.312 27.375-25.7c21.19-12.28 38.92-17.403 61.38-22.05 26.66-5.514 49-1.312 49-1.312l11.71-37.573s-48.33-13.552-69.08-8.052-65.5 20-83.25 31-39.31 45.375-39.31 45.375z"/><path fill="#97D0F1" d="M659.02 129.22v16.47s18.978-29.657 57.145-46.824 64-20.525 85.833-22.25 48.666.75 48.666.75v-16.47s-65-19.166-93.5-11.332-67.153 22-79.743 35-18.4 44.656-18.4 44.656z"/><path fill="#97D0F1" d="M616.873 110.98l42.146 18.24s18.97-29.657 57.14-46.824 64-20.525 85.83-22.25 48.66.75 48.66.75l11.666-37s-77-17.583-102.5-9.083-78.42 23.02-95.21 33.386-47.748 62.78-47.748 62.78z"/><path fill="#74BBE8" d="M616.873 103.397v7.583s23.333-38.708 68.49-59.083c31.733-14.32 63.718-26.125 105.8-29.417 46.453-3.633 71.168 1.417 71.168 1.417v-7.583s-65.5-13.25-104.5-4.25-66.16 17.385-88.5 32.75c-34.16 23.5-52.45 58.583-52.45 58.583z"/><path fill="#74BBE8" d="M598.33 100.063s9.21-24.72 46.25-50.22c34.16-23.515 71.004-35.772 105.75-43.03 61.834-12.917 118-3.5 118-3.5l-6 13s-24.714-5.05-71.166-1.417c-42.083 3.292-74.068 15.098-105.802 29.417-45.156 20.375-68.385 59.083-68.385 59.083l-18.646-3.333z"/><path fill="#4E9CD5" d="M598.33 100.063v61.688l102.876 18.54v-16.28l-42.186-18.32v-16.47l-42.148-18.24.104-7.58M868.33 3.318V65.23l-29.374 65.99v-16.282l11.708-37.572v-16.47l11.667-37v-7.583M1062 184.063v61.75s4.902-10.375 4.902-33.5v-63.625L1062 184.063z"/><path fill="#CDE7F8" d="M881.29 122.563v16.5s19.76 3.28 39.947 17.344 28.206 24.81 34.656 39.406c8.563 19.375 2.25 31.313 2.25 31.313l27.925-27.563s-12.32-42.25-25.903-55.5-78.875-21.5-78.875-21.5z"/><path fill="#CDE7F8" d="M893.248 85.188l-11.958 37.375s19.76 3.28 39.947 17.344 28.206 24.81 34.656 39.406c8.563 19.375 2.25 31.313 2.25 31.313l41.813-2.604s40.875-48.708 4.875-90.958-111.58-31.876-111.58-31.876z"/><path fill="#97D0F1" d="M893.248 68.355v16.833s44.5 11.458 72.75 36.375 31.91 40.807 34.785 53.807-.827 32.65-.827 32.65l27.125-27.738s-23.25-81.47-48.5-93.97-85.33-17.957-85.33-17.957z"/><path fill="#97D0F1" d="M905.237 31.188l-11.99 37.167s44.5 11.458 72.75 36.375 31.91 40.807 34.786 53.807-.827 32.65-.827 32.65l41.125-3s17.63-25 15.75-40.124-31.83-65.167-50-82.667-101.59-34.208-101.59-34.208z"/><path fill="#74BBE8" d="M905.237 23.25v7.94s56.47 13.062 91.97 43.562c17.472 15.012 39.04 36.375 46.29 67.625s-2.416 45.813-2.416 45.813l17.5-9.125s-4.5-77.25-46.75-111.797c-47-38.435-106.59-44.018-106.59-44.018z"/><path fill="#74BBE8" d="M910.894 11.313s40.77 7.333 77.438 29.417c37.448 22.553 52.146 41.324 68 68.5 19.833 34 5.666 74.833 5.666 74.833l-20.917-3.813s9.67-14.563 2.42-45.813-28.82-52.613-46.29-67.625c-35.5-30.5-91.97-43.563-91.97-43.563l5.66-11.94z"/><path fill="#4E9CD5" d="M1041.08 180.084v7.937l-41.124 3v16.84l-41.812 2.61v16.5l103.854 18.858V183.9"/><ellipse cx="823.498" cy="216.994" fill="#4E9CD5" rx="54.667" ry="35.403"/><ellipse cx="823.498" cy="215.993" fill="#74BBE8" rx="49.004" ry="31.737"/><ellipse cx="823.498" cy="214.992" fill="#97D0F1" rx="35.109" ry="22.737"/><ellipse cx="823.498" cy="212.993" fill="#CDE7F8" rx="11.431" ry="7.403"/><path fill="#CDE7F8" d="M647.33 173.072l41.75 17.742s-3.393 30.41 15.5 52.25c9.626 11.125 33.206 24.787 39.894 28.145 10.17 5.1 21.607 8.02 21.607 8.02l-12 15.83s-95.59-52-106.26-71.17-.48-50.82-.48-50.82z"/><path fill="#97D0F1" d="M647.33 156.563v16.508s-2.33 22.16 1.17 31.16-13.333-3.66-13.333-3.66l12.166-44z"/><path fill="#97D0F1" d="M605.807 138.3l41.524 18.264s-6.87 31.75 10.94 60.75c9.76 15.882 28.07 30.75 42.32 38s53.5 23.5 53.5 23.5l-12.25 16.875s-111.06-39.52-122.75-64.13c-31-65.25-13.27-93.27-13.27-93.27z"/><path fill="#74BBE8" d="M606.165 130.897l-12.333 22.854s5.875 12.07 5.938 5.82 6.438-21.12 6.438-21.12l-.043-7.55"/><path fill="#74BBE8" d="M585.33 126.563s-5.124 23.5-5.124 35.75 9.125 84.25 40.875 102.75 115.25 35 115.25 35l5.5-12.25s-25.8-7.536-51.37-18.75c-24.28-10.65-57.62-38.25-69.87-58-28.67-46.223-14.41-80.167-14.41-80.167l-20.833-4.333z"/><path fill="#4E9CD5" d="M580.206 157.938v66s4 20.5 11.875 40.125c6.98 17.395 28.81 45.32 66.63 67.625 45.29 26.708 77.63 29.875 77.63 29.875v-61.5s-39.5-6.25-77.5-29.75c-10.16-6.285-46.63-31.543-66.5-69.75-9.75-18.75-12.12-42.625-12.12-42.625z"/><path fill="#4E9CD5" d="M766.08 279.23v16.5l-29.75 65.833v-61.5l5.5-12.25v7.875l12.25-16.875v16.25"/><path fill="#CDE7F8" d="M839.832 286.994s43.5-2.18 79.5-24.014c23.664-14.352 26.5-25.417 26.5-25.417l27.637-1.983s-32.39 36.983-57.89 43.233-75.75 8.18-75.75 8.18z"/><path fill="#97D0F1" d="M789.956 295.063l6.125-8.625s53.42 5.125 94.75-7.625 59.67-22.75 73.84-34.916 23.5-26 23.5-26l36.85-2.57s-31.62 55.76-67.68 64.486c-116.75 28.25-167.37 15.25-167.37 15.25z"/><path fill="#74BBE8" d="M778.665 307.563l6.417-13.25s33.625 4.625 72.248 1.375c40.106-3.375 80.136-16.69 104.044-28.792 50.625-25.625 68.958-59.583 68.958-59.583l18.625 3.667s-50.625 96.833-90.625 109.208-179.667-12.625-179.667-12.625z"/><path fill="#4E9CD5" d="M778.665 307.563v62.333s61.667 8.334 115-3.333 85.01-25.635 109.48-44.125c44.603-33.708 45.812-49.458 45.812-49.458v-62s-9.613 24.534-46.27 49.98c-27.522 19.103-45.022 29.603-106.397 43.11-67.643 14.89-117.625 3.493-117.625 3.493z"/><path fill="#99ccff" d="M150.355 34.568c4.307 0 6.264 2.35 6.264 6.266v39.154c0 3.916-1.96 6.264-6.27 6.264h-45.42v255.29c0 4.308-1.96 6.267-6.27 6.267H57.95c-3.916 0-6.266-1.96-6.266-6.27V86.25H6.264C2.35 86.252 0 83.902 0 79.988V40.834c0-3.916 2.35-6.266 6.265-6.266h144.09zm194.208 45.42c0 3.916-2.35 6.264-6.265 6.264h-97.104v78.703h73.61c3.917 0 6.267 2.348 6.267 6.264v39.15c0 4.3-2.35 6.26-6.26 6.26H241.2v124.91c0 3.91-2.35 6.26-6.267 6.26H194.21c-4.306 0-6.264-2.35-6.264-6.267v-300.7c0-3.916 1.958-6.266 6.264-6.266H338.3c3.917 0 6.266 2.35 6.266 6.266v39.154zm81.89 164.844c-3.915 2.348-5.482 5.09-5.482 9.395v34.066c0 5.09 2.75 7.83 7.84 7.83h42.29V280.07c0-5.09 2.74-7.832 7.83-7.832h37.59c5.09 0 7.83 2.742 7.83 7.832v59.906c0 5.092-2.74 7.832-7.83 7.832H375.55c-5.09 0-7.83-2.74-7.83-7.832V224.47c0-7.438 2.74-10.573 10.18-14.487l93.187-50.118v-57.95c0-10.18-5.873-15.662-15.662-15.662H436.63c-10.57 0-15.662 5.482-15.662 15.663v30.54c0 3.916-2.348 6.266-6.263 6.266h-40.722c-4.307 0-6.265-2.35-6.265-6.266V90.952c0-36.806 19.577-56.384 56.383-56.384h43.86c36.42 0 56.38 19.578 56.38 56.384v92.405c0 7.44-3.13 10.572-10.57 14.488l-87.31 46.987z"/><path fill="#4E9CD5" d="M1230.102 34.568c36.806 0 56.383 19.578 56.383 56.384v41.503c0 3.916-1.958 6.266-6.265 6.266h-40.72c-3.917 0-6.267-2.35-6.267-6.26v-30.54c0-10.18-5.09-15.66-15.66-15.66h-18.796c-9.79 0-15.662 5.48-15.662 15.67v54.034l93.19 30.54c6.655 2.74 10.18 7.048 10.18 14.487v90.447c0 36.808-19.578 56.386-56.384 56.386h-43.85c-36.41 0-56.38-19.58-56.38-56.385v-41.12c0-4.305 2.35-6.264 6.27-6.264h40.72c4.31 0 6.27 1.96 6.27 6.266v30.15c0 10.572 5.873 15.66 15.66 15.66h18.796c10.18 0 15.66-5.088 15.66-15.66v-52.08l-92.796-30.54c-7.05-2.35-10.57-7.05-10.57-14.488V90.95c0-36.806 19.965-56.384 56.38-56.384h43.85zm230.238 0c4.307 0 6.265 2.35 6.265 6.266v39.154c0 3.916-1.958 6.264-6.265 6.264h-45.42v255.29c0 4.308-1.958 6.267-6.266 6.267h-40.72c-3.916 0-6.266-1.96-6.266-6.27V86.25h-45.42c-3.916 0-6.265-2.35-6.265-6.264V40.833c0-3.916 2.35-6.266 6.265-6.266h144.092zm149.572 313.242c-3.525 0-5.483-1.96-6.267-5.483l-10.963-57.166h-69.696l-10.57 57.17c-.782 3.53-2.74 5.48-6.266 5.48h-41.896c-4.307 0-6.265-2.35-5.09-6.65l64.996-301.11c.783-3.91 3.135-5.48 6.656-5.48h54.428c3.52 0 5.87 1.57 6.655 5.48l64.99 301.11c.78 4.308-.78 6.657-5.48 6.657h-41.51zm-52.076-244.72l-25.06 136.65h50.117l-25.057-136.65zm126.477-62.256c0-3.916 1.958-6.266 6.266-6.266h93.97c36.8 0 56.38 19.97 56.38 56.775v200.08c0 36.807-19.58 56.385-56.39 56.385h-93.97c-4.31 0-6.27-1.96-6.27-6.266V40.834zm89.273 255.29c10.18 0 15.662-5.09 15.662-15.663V102.31c0-10.572-5.48-16.055-15.662-16.055h-36.022v209.87h36.022zm153.49-261.556c3.916 0 6.266 2.35 6.266 6.266v300.71c0 3.915-2.35 6.265-6.266 6.265h-40.72c-4.308 0-6.265-2.35-6.265-6.27V40.83c0-3.914 1.96-6.264 6.27-6.264h40.72zm194.206 0c4.31 0 7.83 3.523 7.83 7.83v249.025c0 36.807-19.575 56.385-56.38 56.385h-43.855c-36.804 0-56.382-19.578-56.382-56.385V42.4c0-4.31 3.523-7.832 7.83-7.832h37.59c4.307 0 7.83 3.523 7.83 7.83V280.46c0 10.576 5.483 15.664 15.662 15.664h20.36c10.18 0 15.664-5.088 15.664-15.662V42.4c0-4.31 3.53-7.832 7.84-7.832h36.02zm254.515 0c5.092 0 7.832 2.74 7.832 7.83v297.578c0 5.092-2.74 7.832-7.84 7.832h-36.42c-5.09 0-7.83-2.74-7.83-7.832V163.78h-2.74l-38.766 176.98c-1.175 4.698-3.917 7.048-8.616 7.048h-19.184c-4.7 0-7.44-2.35-8.613-7.05l-38.762-176.98h-2.74v176.198c0 5.092-2.74 7.832-7.83 7.832h-36.022c-5.09 0-7.83-2.74-7.83-7.832V42.4c0-5.092 2.74-7.832 7.83-7.832h51.687c4.7 0 7.44 2.35 8.616 7.05l43.465 194.99 43.46-194.99c1.172-4.7 3.914-7.05 8.613-7.05h51.68z"/></svg>