<svg xmlns="http://www.w3.org/2000/svg" width="350" height="350" viewBox="0 0 350 350"><path fill="#888" d="M79.553 152.247c-34.125 12.363-53.066 45.312-53.066 84.02 0 46.732 27.4 88.924 76.21 88.924l.003-243.71c.02-20 14.204-30.613 31.604-30.613v82.45c0 11.87 11.374 27.5 23.75 27.5h53.167c12.38 0 23.75-15.63 23.75-27.5V50.86c17.4 0 31.59 10.617 31.61 30.617V325.19c49.064 0 76.21-42.188 76.21-88.923 0-38.71-18.94-71.66-53.064-84.02h.002v-71.3c0-7.69-1-21.14-10.25-32.6-10.62-13.154-28.66-22.92-52.41-23.533-6.975-.18-16.262 3.532-16.262 10.36 0 28.548-.018 60.118-.018 89.55 0 12.666-8.23 13.94-14.23 13.94h-23.83c-6 0-14.23-1.274-14.23-13.94 0-29.433-.017-61.002-.017-89.55 0-6.828-9.287-10.54-16.26-10.36-23.753.614-41.794 10.38-52.413 23.534-9.25 11.458-10.25 24.91-10.25 32.6-.002 20.795-.002 48.767-.002 71.297z"/><path fill="none" stroke="#888" stroke-width="25" stroke-miterlimit="10" d="M9.637 333.15l316.3-316.3"/></svg>