<?xml version="1.0" encoding="UTF-8" ?>
<!DOCTYPE svg PUBLIC "-//W3C//DTD SVG 1.1//EN" "http://www.w3.org/Graphics/SVG/1.1/DTD/svg11.dtd">
<svg fill="#474747" viewBox="0 0 320 94" version="1.1" xmlns="http://www.w3.org/2000/svg">
<path d=" M 2.55 40.19 C 6.47 24.73 21.41 13.11 37.36 12.99 C 36.96 20.65 35.87 28.28 34.86 35.89 C 30.81 37.13 27.39 39.75 25.08 43.29 C 17.57 42.24 9.98 41.69 2.55 40.19 Z" />
<path  d=" M 44.97 37.17 C 45.92 29.59 46.26 21.91 47.76 14.41 C 63.19 18.30 74.74 33.35 74.67 49.26 C 67.28 48.77 59.93 47.68 52.58 46.71 C 51.22 42.73 48.51 39.43 44.97 37.17 Z" />
<path d=" M 87.95 16.83 C 94.05 16.68 100.15 16.38 106.24 15.96 C 107.01 34.47 107.47 53.00 108.14 71.52 C 114.98 70.91 121.84 70.62 128.68 69.99 C 128.81 74.06 129.00 78.13 129.26 82.19 C 116.44 82.73 103.62 83.30 90.81 84.04 C 89.79 61.64 89.05 39.23 87.95 16.83 Z" />
<path d=" M 153.41 16.75 C 169.19 13.25 187.11 21.49 193.52 36.59 C 200.02 50.34 195.33 68.16 182.88 76.89 C 168.58 87.60 146.32 86.16 134.36 72.56 C 123.94 61.42 122.93 43.14 131.89 30.83 C 136.87 23.56 144.81 18.51 153.41 16.75 Z  M 155.40 34.60 C 162.76 32.86 171.32 34.72 176.44 40.52 C 180.76 45.29 182.00 52.53 179.71 58.51 C 176.62 66.74 167.55 71.82 158.92 70.95 C 149.13 70.28 140.61 61.07 141.45 51.14 C 141.71 43.26 147.82 36.37 155.40 34.60 Z" fill-rule="evenodd" />
<path d=" M 214.57 22.49 C 227.49 14.04 244.54 14.41 258.44 20.22 C 258.49 25.95 258.43 31.67 258.49 37.40 C 251.10 33.76 242.45 32.92 234.44 34.69 C 228.86 36.13 223.19 39.15 220.44 44.44 C 217.09 50.54 218.10 58.92 223.32 63.67 C 228.21 68.09 235.10 69.62 241.55 69.10 C 241.54 66.40 241.53 63.71 241.54 61.01 C 238.78 61.00 236.03 61.00 233.27 60.99 C 233.28 57.33 233.28 53.67 233.28 50.00 C 240.52 49.99 247.76 50.00 255.00 50.00 C 255.00 61.33 255.00 72.67 255.00 84.00 C 244.13 83.54 232.81 85.47 222.38 81.54 C 212.78 78.10 204.09 70.76 201.08 60.76 C 197.40 46.92 202.31 30.51 214.57 22.49 Z" />
<path d=" M 265.92 28.94 C 269.96 21.32 278.56 17.27 286.83 16.29 C 297.26 15.22 308.46 16.88 317.02 23.32 C 313.97 28.56 310.89 33.78 307.82 39.00 C 303.23 34.69 297.26 31.49 290.86 31.33 C 287.66 31.24 284.05 32.60 282.81 35.78 C 281.04 39.49 282.56 43.89 285.31 46.68 C 290.27 51.83 297.45 54.38 301.89 60.11 C 305.64 64.73 306.53 71.49 304.04 76.91 C 301.71 81.28 296.87 83.81 292.04 84.17 C 283.21 85.03 274.77 81.21 267.38 76.76 C 269.56 72.81 271.68 68.83 273.76 64.82 C 276.91 67.40 280.15 70.14 284.15 71.25 C 286.42 71.97 289.19 71.58 290.86 69.77 C 291.70 67.08 289.30 64.99 287.49 63.43 C 280.52 57.83 271.85 53.89 266.89 46.12 C 263.71 41.06 262.93 34.28 265.92 28.94 Z" />
<path d=" M 1.54 51.06 C 8.81 51.97 16.14 52.58 23.38 53.72 C 25.42 57.57 27.81 61.33 31.63 63.72 C 30.75 70.86 30.23 78.03 29.14 85.14 C 18.57 83.16 9.74 75.41 5.15 65.85 C 3.02 61.24 1.02 56.22 1.54 51.06 Z" />
<path d=" M 51.17 57.17 C 58.55 57.88 65.98 58.44 73.29 59.70 C 69.42 74.75 54.71 86.29 39.12 86.10 C 39.87 79.09 40.57 72.07 41.60 65.10 C 45.34 63.18 49.08 61.01 51.17 57.17 Z" />
</svg>
