<?xml version="1.0" encoding="utf-8"?>
<!DOCTYPE svg PUBLIC "-//W3C//DTD SVG 1.1//EN" "http://www.w3.org/Graphics/SVG/1.1/DTD/svg11.dtd">
<svg version="1.1" xmlns="http://www.w3.org/2000/svg" xmlns:xlink="http://www.w3.org/1999/xlink" x="0px" y="0px"
	   width="240.458px" height="126px" viewBox="0 0 240.458 126" enable-background="new 0 0 240.458 126" xml:space="preserve">
	<path d="M202.241,11.896c-16.606,0-30.122,13.517-30.122,30.125c0,0.127,0.009,0.261,0.009,0.391l-19.414,28.141
		                      c-3.137-0.133-6.297,0.41-9.292,1.648c-1.31,0.539-2.548,1.201-3.708,1.959L52.25,37.995c-1.471-6.81-6.134-12.814-13.032-15.686
		                      c-11.196-4.666-24.101,0.644-28.766,11.84C5.791,45.341,11.104,58.25,22.298,62.913c5.419,2.252,11.403,2.265,16.834,0.03
		                      c1.25-0.514,2.435-1.141,3.549-1.869l87.661,36.246c1.511,6.738,6.154,12.664,12.999,15.52
		                      c11.195,4.664,24.096-0.652,28.756-11.851c1.216-2.904,1.776-5.976,1.691-9.03l27.776-19.823c0.226,0.013,0.451,0.013,0.677,0.013
		                      c16.616,0,30.126-13.514,30.126-30.125C232.367,25.414,218.857,11.896,202.241,11.896z M36.085,31.311
		                      c-6.368-2.649-13.683,0.362-16.336,6.729c-2.654,6.369,0.359,13.685,6.727,16.335l10.063,4.158
		                      c-1.891,0.694-3.86,1.042-5.824,1.042c-2.197,0-4.393-0.43-6.485-1.304c-6.506-2.708-10.44-9.036-10.44-15.686
		                      c0-2.169,0.425-4.375,1.308-6.505c3.594-8.63,13.55-12.73,22.184-9.135c4.063,1.696,7.105,4.806,8.833,8.517L36.085,31.311z
		                      M167.458,99.057c-3.594,8.643-13.551,12.737-22.187,9.139c-3.988-1.663-6.993-4.692-8.74-8.321l9.82,4.063
		                      c1.565,0.656,3.195,0.961,4.796,0.961c4.892,0,9.536-2.89,11.536-7.691c2.654-6.364-0.359-13.68-6.729-16.329l-10.132-4.2
		                      c3.905-1.468,8.352-1.539,12.505,0.191c4.186,1.747,7.438,5.013,9.167,9.209C169.213,90.266,169.206,94.879,167.458,99.057z
		                      M202.241,62.094c-11.06,0-20.073-9.003-20.073-20.073c0-11.067,9.014-20.074,20.073-20.074c11.075,0,20.074,9.006,20.074,20.074
		                      C222.315,53.091,213.316,62.094,202.241,62.094z"/>
	<path d="M202.273,26.91c-8.325,0-15.071,6.75-15.071,15.074c0,8.332,6.746,15.082,15.071,15.082
		       c8.332,0,15.085-6.75,15.085-15.082C217.358,33.66,210.605,26.91,202.273,26.91z"/>
</svg>
