<?xml version="1.0" encoding="utf-8"?>
<!DOCTYPE svg PUBLIC "-//W3C//DTD SVG 1.1//EN" "http://www.w3.org/Graphics/SVG/1.1/DTD/svg11.dtd">
<svg version="1.1"
	   xmlns="http://www.w3.org/2000/svg"
     xmlns:xlink="http://www.w3.org/1999/xlink"
	   x="0px"
     y="0px"
     width="200px"
     height="200px"
     viewBox="0 0 200 200"
	   xml:space="preserve">
  <defs>
  <mask id="steamlogo">
    <rect x="0"
          y="0"
          width="200"
          height="200"
          style="fill: white" />
    <path style="fill: black"
          transform="translate(16.8, 61) scale(1.3, 1.3) translate(0, 0.707)"
          d="M0,17.609c0-3.575,1.268-6.632,3.806-9.169c2.534-2.537,5.56-3.802,9.072-3.802c3.056,0,5.787,0.942,8.198,2.823
	           c2.408,1.891,3.901,4.329,4.484,7.317l48.976,19.706c2.082-1.232,4.29-1.85,6.629-1.85h0.688c0.322,0,0.554,0.029,0.682,0.096
	           l10.729-15.514c0.065-4.745,1.791-8.808,5.172-12.196c3.381-3.375,7.467-5.053,12.248-5.02c4.776,0.032,8.859,1.737,12.239,5.121
	           c3.384,3.384,5.077,7.48,5.077,12.294s-1.693,8.908-5.077,12.289c-3.38,3.39-7.476,5.079-12.291,5.079L94.05,46.877
	           c-0.332,3.317-1.727,6.082-4.196,8.292c-2.475,2.214-5.363,3.354-8.688,3.417c-3.116,0-5.849-0.979-8.19-2.926
	           c-2.336-1.951-3.841-4.392-4.486-7.317L19.512,28.731c-2.079,1.235-4.293,1.852-6.634,1.852c-3.578,0-6.604-1.266-9.072-3.799
	           C1.334,24.245,0.062,21.188,0,17.609z M3.417,17.609c0,2.605,0.942,4.813,2.829,6.635c1.886,1.819,4.098,2.768,6.632,2.827
	           c0.585,0,1.273-0.06,2.048-0.191l-3.998-1.564v-0.093c-1.825-0.847-3.128-2.214-3.901-4.099c-0.392-0.909-0.583-1.84-0.583-2.779
	           c0-0.948,0.191-1.902,0.583-2.88c0.773-1.951,2.076-3.315,3.901-4.096c0.977-0.458,1.981-0.655,3.026-0.59
	           c0.843,0,1.717,0.165,2.632,0.488v-0.093l4.78,1.947c-1.891-3.377-4.717-5.073-8.488-5.073c-2.603,0-4.814,0.915-6.632,2.73
	           C4.419,12.602,3.478,14.88,3.417,17.609z M72.682,50.099c1.885,3.381,4.715,5.07,8.483,5.07c2.606,0,4.847-0.941,6.733-2.83
	           c1.889-1.884,2.83-4.131,2.83-6.73c0-2.599-0.912-4.842-2.73-6.729s-4.1-2.794-6.833-2.731c-0.909,0-1.591,0.062-2.046,0.194
	           l3.9,1.562c1.953,0.781,3.356,2.152,4.193,4.097c0.455,0.976,0.686,1.938,0.686,2.878c0,0.945-0.19,1.905-0.58,2.884
	           c-0.78,2.011-2.147,3.413-4.102,4.188c-0.976,0.392-1.938,0.587-2.878,0.587c-0.944,0-1.901-0.195-2.878-0.587
	           c-0.521-0.191-1.298-0.518-2.339-0.969C74.076,50.519,73.266,50.228,72.682,50.099z M99.023,17.416c0,3.188,1.135,5.92,3.414,8.196
	           c2.275,2.276,5.021,3.417,8.244,3.417c3.217,0,5.965-1.141,8.241-3.417s3.416-5.008,3.416-8.196c0-3.184-1.14-5.92-3.416-8.197
	           c-2.276-2.273-5.024-3.416-8.241-3.416c-3.223,0-5.969,1.143-8.244,3.416C100.158,11.496,99.023,14.231,99.023,17.416z
	           M101.463,17.319c0,2.6,0.909,4.816,2.73,6.635c1.822,1.818,4,2.729,6.533,2.729c2.537,0,4.721-0.91,6.539-2.729
	           c1.818-1.818,2.729-4.015,2.729-6.59c0-2.567-0.909-4.763-2.729-6.585c-1.818-1.815-4.015-2.73-6.584-2.73
	           c-2.57,0-4.736,0.915-6.488,2.73C102.438,12.602,101.525,14.779,101.463,17.319z"/>
  </mask>
  </defs>

  <rect x="0"
        y="0"
        width="200"
        height="200"
        style="fill: black"
        mask="url(#steamlogo)"
        />
</svg>
