<?xml version="1.0" encoding="utf-8"?>
<!DOCTYPE svg PUBLIC "-//W3C//DTD SVG 1.1//EN" "http://www.w3.org/Graphics/SVG/1.1/DTD/svg11.dtd">
<svg version="1.1" xmlns="http://www.w3.org/2000/svg" xmlns:xlink="http://www.w3.org/1999/xlink"
	 viewBox="0 0 16 16" enable-background="new 0 0 16 16" xml:space="preserve">
		<path fill-rule="evenodd" clip-rule="evenodd" d="M6.3,3.4L8,1.7v9.8C8,11.8,8.2,12,8.5,12C8.8,12,9,11.8,9,11.5
			V1.7l1.7,1.7c0.2,0.2,0.5,0.2,0.7,0c0.2-0.2,0.2-0.5,0-0.7L8.9,0.2c0,0,0,0,0-0.1C8.8,0,8.6,0,8.5,0c0,0,0,0,0,0c0,0,0,0,0,0
			C8.4,0,8.2,0,8.1,0.1c0,0,0,0,0,0.1L5.6,2.7c-0.2,0.2-0.2,0.5,0,0.7C5.8,3.5,6.1,3.5,6.3,3.4z M14,4h-1.5v1h1
			C13.8,5,14,5.2,14,5.5v9c0,0.3-0.2,0.5-0.5,0.5h-10C3.2,15,3,14.8,3,14.5v-9C3,5.2,3.2,5,3.5,5h1V4H3C2.4,4,2,4.4,2,5v10
			c0,0.6,0.4,1,1,1h11c0.6,0,1-0.4,1-1V5C15,4.4,14.6,4,14,4z"/>
</svg>
