<svg xmlns="http://www.w3.org/2000/svg" width="50" height="50" viewBox="0 0 50 50"><g fill="#F5F5F5"><path d="M13.47 10.104s16.937 2.053 29.55 14.298v-4.694s-3.927.148-5.246-2.603c-1.32-2.75.258-4.216.258-4.216s-4.617-5.5-11.07-6.31c0 0-.86 4.03-5.792 3.41 0 0-2.713-.3-3.226-2.24-.002 0-2.86.88-4.475 2.35zm-8.562 18.26s16.45-.003 29.31 13.853l-1.706 1.814s-1.447-4.09-5.406-3.61c-2.52.31-3.94 1.47-4.73 4.22l-1.576.39s-1.21-7.15-9.35-6.65l.112-.77s1.594-4.014-.88-6.27c-2.475-2.254-5.643-.48-5.643-.48s-.68-2.16-.14-2.49zm-3.342-15.99l9.118.367s.405 7.71-5.698 8.88l-3.42-9.24"/><path d="M22-.05l-3.18 6.64s.726 2.268 3.74 2.253c2.43-.01 3.465-2.913 3.465-2.913L22-.05zm7.87 5.745l6.91-4.074-.177 7.66s-1.707-2.2-6.733-3.58zm9.183 7.267S37.4 17.875 43.45 18.57l2.45-6.194-6.847.586z"/><circle cx="24.394" cy="23.743" r="4.729"/><path d="M42.21 27.557c-11.878-14.665-30.574-15.18-30.574-15.18s1.174 3.52-.66 6.892-6.23 3.81-6.23 3.81c-.296 2.12 0 3.08 0 3.08 17.594-.73 31.672 15.25 31.672 15.25 1.47-1.98 1.688-3.67 1.688-3.67s-1.3-1.41-.88-4.84c.48-3.907 4.985-5.354 4.985-5.354zM24.395 30.23c-3.586 0-6.49-2.904-6.49-6.49 0-3.583 2.904-6.49 6.49-6.49 3.586 0 6.49 2.906 6.49 6.49.003 3.586-2.904 6.49-6.49 6.49z"/><path d="M42.89 28.79s-5.43 1.71-3.42 8.853l8.964-1.063-5.365-7.79M5.14 32.01s2.122-1.275 4.14 0 .904 6.01.904 6.01l-7.645.52 2.6-6.53zm5.35 7.842l.603 10.197 8.085-4.35s-.035-2.85-2.896-4.57c-2.86-1.72-5.79-1.28-5.79-1.28zm21.112 5.24s-.662-3.432-3.738-3.23c-3.08.203-4.455 3.23-4.455 3.23l5.32 4.957 2.87-4.96z"/></g></svg>