<?xml version="1.0" encoding="utf-8"?>
<svg version="1.1" xmlns="http://www.w3.org/2000/svg" xmlns:xlink="http://www.w3.org/1999/xlink" x="0px" y="0px"
	 viewBox="0 0 280.7 280.8" style="enable-background:new 0 0 280.7 280.8;" xml:space="preserve">
<path fill="#666" d="M156.9,70.8c-4.2-5.1-3.4-13.5,1.7-17.8c16.1-12.7,35.5-19.5,55.9-19.5H225c0,8.1,0,17.1,0,25.4h-10.6
	c-14.4,0-28.8,5.1-39.8,14.4c-1.7,1.7-4.2,2.5-7.6,2.5C163.7,75.9,159.5,74.2,156.9,70.8z M225,221.4h-9.7
	c-35.5,0-64.3-28.8-64.3-64.3v-33.9c0-49.9-40.6-89.7-89.7-89.7h-5.6c0,8.1,0,17.1,0,25.4h5.6c35.5,0,64.3,28.8,64.3,64.3v33.8
	c0,49.9,40.6,89.7,89.7,89.7h9.7C225.1,238.6,225.1,229.6,225,221.4z M101.9,207c-11,9.3-25.4,14.4-39.8,14.4h-6.5
	c0,8.1,0,17.2,0,25.4h6.5c20.3,0,39.8-6.8,55.9-20.3c5.1-4.2,5.9-12.7,1.7-17.8C115.5,203.7,107,202.8,101.9,207z M240.3,273.9
	c3.4,0,5.9-0.8,8.5-3.4l27.1-27.1c1.7-2.5,3.4-5.9,3.4-9.3c0-3.4-0.8-6.8-3.4-9.3l-27.1-27.1c-5.1-5.1-12.7-5.1-17.8,0
	c0,6.6,0,62.1,0,72.8C233.6,273.1,237,273.9,240.3,273.9L240.3,273.9z M240.3,273.9 M240.3,86.9c3.4,0,5.9-0.8,8.5-3.4l27.1-27.1
	c1.7-2.5,3.4-5.9,3.4-9.3c0-3.4-0.8-6.8-3.4-9.3l-27.1-27.1c-5.1-5.1-12.7-5.1-17.8,0c0,6.6,0,62.1,0,72.8
	C233.6,86,237,86.9,240.3,86.9L240.3,86.9z M240.3,86.9 M40.4,273.9c3.4,0,6.8-0.8,9.3-3.4c0-10.7,0-66.2,0-72.8
	c-5.1-5.1-12.7-5.1-17.8,0L4.8,224.8c-2.5,2.5-3.4,5.9-3.4,9.3c0,3.4,1.7,6.8,3.4,9.3l27.1,27.1C34.5,273.1,37,273.9,40.4,273.9
	L40.4,273.9z M40.4,273.9 M40.4,86.9c3.4,0,6.8-0.8,9.3-3.4c0-10.7,0-66.2,0-72.8c-5.1-5.1-12.7-5.1-17.8,0L4.8,37.8
	c-2.5,2.5-3.4,5.9-3.4,9.3c0,3.4,1.7,6.8,3.4,9.3l27.1,27.1C34.5,86,37,86.9,40.4,86.9L40.4,86.9z M40.4,86.9"/>
</svg>
