<svg xmlns="http://www.w3.org/2000/svg" width="50" height="50" viewBox="0 0 50 50"><path fill="#F5F5F5" d="M47.277 25.555l-2.52-.806.505-4.54-2.22-3.83-3.63-1.01v-3.527L36.49 8.82l-4.03-.806-1.01-3.124-5.04-2.52-6.35 1.31-6.05 7.056L2.62 17.59 0 25l1.412 4.79c4.03 1.51 5.343 4.536 5.343 4.536l2.792-1.15-3.662-6.848v-.004l6.37-12.03 1.255.665-6.017 11.36 3.15 5.892L23.386 18.62l1.037.973L10.975 33.94l2.735 3.712 3.54 2.078L30.685 25.4l1.035.972-13.206 14.09 7.36 3.845 10.42-10.783 1.03.994-10.13 10.48.02.014 5.346 2.62s12.7-9.376 15.02-11.692C49.9 33.62 50 29.588 50 29.588l-2.723-4.033z"/></svg>