<svg xmlns="http://www.w3.org/2000/svg" width="50" height="50" viewBox="0 0 50 50"><path fill="#666" d="M47.277 25.555l-2.52-.806.504-4.54-2.214-3.83-3.63-1.01v-3.53L36.49 8.82l-4.03-.806-1.01-3.124-5.04-2.52-6.35 1.31-6.05 7.056L2.62 17.59 0 25l1.412 4.79c4.03 1.51 5.343 4.536 5.343 4.536l2.792-1.15-3.662-6.848v-.004l6.37-12.03 1.255.665-6.017 11.36 3.15 5.89 12.743-13.59 1.037.972L10.975 33.94l2.735 3.712 3.54 2.078 13.434-14.327 1.035.97L18.51 40.46l7.36 3.848 10.42-10.783 1.03.994L27.192 45l.023.013 5.344 2.62s12.7-9.376 15.02-11.692C49.9 33.62 50 29.59 50 29.59l-2.723-4.033z"/></svg>