<svg xmlns="http://www.w3.org/2000/svg" width="50" height="50" viewBox="0 0 50 50"><path fill="#F5F5F5" d="M34.94 29.215l-10.46-9.027-2.407 2.055 11.138 9.504m9.55-16.797l.41-2.893 1.57-.588.947-1.88-.042-.04-4.39-3.745-.04-.035L39.508 7l-.332 1.644-2.792.86-10.522 9.43 10.025 8.546m-5.415 4.18l-7.88-6.72-1.15 2.284 6.96 5.93 2.07-1.495-7.88-6.72m-2.04 4.23l6.07 5.17-3.915 2.916-4.67-3.98m-1.264 1.776l4.447 3.79L11.79 49.9 7.215 46m30.002-4.27h-3.23v-3.233h-2.993v3.23h-3.23v2.993h3.23v3.23h2.993v-3.23h3.23M26.53 5.03h-4.935V.095h-4.57V5.03h-4.937v4.572h4.936v4.935h4.57V9.602h4.936m-12.418 5.48h-3.345v-3.347H7.665v3.347H4.32v3.1h3.345v3.347h3.102v-3.35h3.345m4.53 6.11h-2.287v-2.287h-2.12v2.287H11.95v2.12h2.286v2.29h2.12v-2.29h2.286"/></svg>