<svg xmlns="http://www.w3.org/2000/svg" width="50" height="50" viewBox="0 0 50 50"><path fill="#666" d="M8.553 17.207s2.132 1.848 1.705 6.963c-.426 5.115-2.272 14.495 3.127 20.75 5.4 6.25 14.922 5.824 19.186 3.124 4.27-2.7 9.53-8.385 8.82-19.896-.214-4.264-1.14-4.974-.71-8.598 0 0-2.132 1.352-2.062 4.55.07 3.194-.923 7.244-4.55 7.03-3.62-.21-4.26-3.978-3.267-6.962.995-2.982 2.06-6.606-.355-12.292C28.02 6.192 25.75 3.99 19.99.083c0 0 4.688 4.83-.284 14.14-2.627 4.69-4.758 8.553-4.616 10.778 0 0-1.99.24-2.77-3.95-.784-4.19-3.767-3.84-3.767-3.84z"/></svg>