<svg xmlns="http://www.w3.org/2000/svg" width="50" height="50" viewBox="0 0 50 50"><path fill="#F5F5F5" d="M8.553 17.207s2.132 1.848 1.705 6.963c-.426 5.115-2.272 14.495 3.127 20.75 5.4 6.25 14.922 5.824 19.186 3.124 4.27-2.698 9.525-8.385 8.817-19.896-.216-4.266-1.14-4.976-.71-8.6 0 0-2.134 1.352-2.064 4.55.07 3.194-.923 7.244-4.55 7.03-3.62-.21-4.26-3.978-3.267-6.962.995-2.982 2.062-6.606-.354-12.292C28.02 6.192 25.748 3.99 19.99.084c0 0 4.688 4.83-.284 14.14C17.08 18.912 14.948 22.776 15.09 25c0 0-1.99.237-2.77-3.955-.784-4.19-3.767-3.838-3.767-3.838z"/></svg>