<svg xmlns="http://www.w3.org/2000/svg" width="50" height="50" viewBox="0 0 50 50"><path fill="#F5F5F5" d="M38.05 26.422L26.4 16.367l-2.68 2.29L36.125 29.24m10.633-18.707l.453-3.22 1.75-.658 1.056-2.09-.05-.04-4.888-4.17-.045-.04-1.9 1.37-.37 1.832-3.11.96-11.72 10.503 11.163 9.515M33.07 29.15l-8.778-7.484-1.283 2.543 7.75 6.604 2.31-1.666-8.78-7.485m-2.27 4.71l6.76 5.76-4.36 3.25-5.2-4.433m-1.41 1.976l4.952 4.22-10.498 12.317-5.097-4.346M4.08 37.002L-.012.355 5.38 21.563l1.69-10.42 2.803 9.877 7.854-16.247-1.04 14.815 4.158-4.678-1.56 11.046-.64-5.117L15.17 22.8l-.204-7.678-5.24 9.76L7.17 19.83l-.617 8.335-2.988-6.602m23.777 22.73l16.937 5.39-8.47-6.466 9.235-2.926-3.078-.69 7.468-2.926H33.963l9.008-7.007-10.16 3.004 3.848.154-5.85 4.775 10.087 1-5.467 1.075 4.85.693-7.006 2.31 5.12 4.005"/></svg>