<svg xmlns="http://www.w3.org/2000/svg" width="50" height="50" viewBox="0 0 50 50"><path fill="#666" d="M-726.167 53.496s-5.333 4.834-8.5 16.5c-3.167 11.668-14.5 32.334-23 35 0 0-2.5 0-3 .668-.5.666-3.167 6.666 7.667 6.166s30.367-13.152 40.005-27.332c8.958-13.182 21.83-20.834 25.33-21 3.5-.168 3.5-4.334 3.5-5.5 0-1.168-.5-9.996-.5-9.996s-35.002 2.994-41.502 5.494z"/><g fill="#666"><path d="M-717.405 22.746c-.34 3.286.253 4.785.253 4.785l40.413-10.49c1.74-2.6 4.27-8.06 5.98-11.93l-46.64 17.64zM-667.82-6.32c-10.313 3.95-45.173 17.305-47.893 18.432-1.865 2.348-1.316 7.422-1.316 7.422l47.92-18.255.21-.49c1.33-2.4 1.25-5.5 1.09-7.12z"/><path d="M-696.233 31.67c9.926-3.273 14.78-8 16.95-10.872l-37.558 9.444v11.6h-3.39c-.38-30.52 1.31-30.875 1.31-30.875l52.344-20.47c2.435-4.96 4.345-15.508 2.92-14.155-1.69 1.606-15.98 9.46-39.1 19.276-23.12 9.817-25.75 13.564-26.316 14.1-.564.536 0 7.14 0 7.14 1.88 10.17 2.63 31.142 2.63 31.142l39.29-4.373c-3.856-5.086-9.964-6.87-12.784-7.584-2.82-.714-4.24-.962-3.383-1.874.65-.7 7.077-2.5 7.077-2.5z"/></g><g fill="#F5F5F5"><path d="M19.86 28.49s-1.97 1.783-3.137 6.088c-1.168 4.306-5.35 11.93-8.486 12.914 0 0-.922 0-1.105.246-.186.246-1.17 2.46 2.828 2.272 3.996-.184 11.205-4.852 14.76-10.084 3.305-4.86 8.055-7.687 9.346-7.747 1.29-.07 1.29-1.6 1.29-2.03 0-.44-.187-3.69-.187-3.69s-12.92 1.1-15.31 2.03zm3.232-11.345c-.125 1.213.094 1.766.094 1.766l14.91-3.87c.64-.96 1.574-2.97 2.204-4.4l-17.208 6.51zM41.39 6.42c-3.808 1.458-16.668 6.386-17.674 6.8-.688.868-.485 2.74-.485 2.74l17.68-6.735.08-.18c.49-.884.46-2.027.41-2.625z"/><path d="M30.904 20.438c3.66-1.207 5.453-2.95 6.254-4.012L23.3 19.91v4.28h-1.247c-.14-11.262.485-11.394.485-11.394L41.85 5.244c.897-1.83 1.605-5.724 1.08-5.225-.626.59-5.897 3.49-14.43 7.11s-9.5 5-9.71 5.2c-.207.19 0 2.63 0 2.63.693 3.75.972 11.49.972 11.49l14.495-1.61c-1.422-1.88-3.675-2.54-4.716-2.8-1.04-.27-1.56-.36-1.24-.69.24-.25 2.61-.92 2.61-.92z"/></g></svg>