<svg xmlns="http://www.w3.org/2000/svg" width="50" height="50" viewBox="0 0 50 50"><path fill="#F5F5F5" d="M25-.015C11.185-.015-.016 11.185-.016 25c0 13.814 11.2 25.016 25.014 25.016S50.015 38.816 50.015 25C50.015 11.184 38.815-.015 25-.015zm18.652 23.82H33.498c-.518-3.7-3.385-6.642-7.05-7.264V6.36c9.245.713 16.615 8.164 17.204 17.446zm-19.974.105h-4.426c.433-2.277 2.18-4.083 4.426-4.604v4.604zm0 2.645v4.14c-2.088-.485-3.73-2.087-4.3-4.14h4.3zm2.645 0h4.3c-.568 2.053-2.214 3.652-4.3 4.14v-4.14zm0-2.645v-4.604c2.243.52 3.995 2.328 4.427 4.604h-4.427zm-2.77-17.55v10.182c-3.665.623-6.532 3.563-7.05 7.265H6.35c.587-9.283 7.955-16.734 17.2-17.447zM6.373 26.703H16.58c.698 3.46 3.477 6.158 6.974 6.756v10.18c-9.08-.7-16.36-7.897-17.18-16.94zM26.45 43.64V33.456c3.495-.594 6.272-3.293 6.97-6.754h10.208c-.82 9.043-8.105 16.236-17.18 16.936z"/></svg>